PathFileType	4	(X/Y/Z)	/Users/itak/Documents/Research/Walk-IL/dataset/trc/00446_00167.trc
DataRate	CameraRate	NumFrames	NumMarkers	Units	OrigDataRate	OrigDataStartFrame	OrigNumFrames
100.000000	100.000000	4	53	mm	100.000000	417	477
Frame#	Time	RPSI			LPSI			L3			STRN			T10			C7			CLAV			RBAK			LBAK			LSHO			LUPA			LAEL			LAOL			LWTS			LWPS			LFRA			LIFD			LHPS			LHTS			RSHO			RUPA			RAEL			RAOL			RWTS			RWPS			RFRA			RIFD			RHTS			RHPS			RBHD			LFHD			RFHD			LBHD			LHIP			RHIP			RASI			LASI			LKNE			LTHI			LANK			LTIP			LTOE			LMT1			LMT5			LHEE			RKNE			RTHI			RANK			RTIP			RTOE			RMT1			RMT5			RHEE			
		X1	Y1	Z1	X2	Y2	Z2	X3	Y3	Z3	X4	Y4	Z4	X5	Y5	Z5	X6	Y6	Z6	X7	Y7	Z7	X8	Y8	Z8	X9	Y9	Z9	X10	Y10	Z10	X11	Y11	Z11	X12	Y12	Z12	X13	Y13	Z13	X14	Y14	Z14	X15	Y15	Z15	X16	Y16	Z16	X17	Y17	Z17	X18	Y18	Z18	X19	Y19	Z19	X20	Y20	Z20	X21	Y21	Z21	X22	Y22	Z22	X23	Y23	Z23	X24	Y24	Z24	X25	Y25	Z25	X26	Y26	Z26	X27	Y27	Z27	X28	Y28	Z28	X29	Y29	Z29	X30	Y30	Z30	X31	Y31	Z31	X32	Y32	Z32	X33	Y33	Z33	X34	Y34	Z34	X35	Y35	Z35	X36	Y36	Z36	X37	Y37	Z37	X38	Y38	Z38	X39	Y39	Z39	X40	Y40	Z40	X41	Y41	Z41	X42	Y42	Z42	X43	Y43	Z43	X44	Y44	Z44	X45	Y45	Z45	X46	Y46	Z46	X47	Y47	Z47	X48	Y48	Z48	X49	Y49	Z49	X50	Y50	Z50	X51	Y51	Z51	X52	Y52	Z52	X53	Y53	Z53	

418	4.17	1125.54541015625	946.2540893554688	1028.70849609375	1206.351928710938	948.43017578125	912.0036010742188	1166.448608398438	1045.948608398438	993.3815307617188	1403.191040039062	1246.110229492188	1120.114990234375	1149.072509765625	1170.268798828125	984.6574096679688	1198.446899414062	1439.888305664062	1031.471557617188	1371.710205078125	1359.646484375	1098.383422851562	1099.14453125	1319.290893554688	1085.951171875	1211.11279296875	1391.710205078125	929.360595703125	1338.725463867188	1417.701293945312	898.0798950195312	1366.444580078125	1301.777221679688	801.4613647460938	1389.926635742188	1088.694946289062	766.8675537109375	1292.121215820312	1076.955688476562	794.8070068359375	1446.00830078125	897.37744140625	829.7846069335938	1423.646118164062	870.642333984375	764.0292358398438	1412.519897460938	1001.658508300781	762.4929809570312	1478.703369140625	742.876953125	863.9425048828125	1446.879028320312	791.076904296875	781.3009643554688	1482.048095703125	820.418701171875	837.42431640625	1187.076538085938	1407.280517578125	1206.528930664062	1139.936767578125	1343.328125	1266.28515625	1127.489379882812	1054.921508789062	1313.302856445312	1094.235595703125	1040.8203125	1255.74609375	1238.107666015625	856.078857421875	1313.39697265625	1154.892211914062	837.7146606445312	1333.661499023438	1127.318237304688	997.2959594726562	1321.851684570312	1242.117431640625	696.5297241210938	1319.40966796875	1262.359252929688	761.6664428710938	1339.7470703125	1174.595947265625	750.3892822265625	1337.562744140625	1222.627197265625	1633.818969726562	1128.838256835938	1423.261962890625	1652.701171875	1083.09228515625	1345.244995117188	1654.168090820312	1187.8759765625	1314.406127929688	1636.042846679688	977.5076904296875	1388.207275390625	851.1661376953125	893.111083984375	1145.72509765625	847.6796264648438	1208.658081054688	1266.462524414062	891.709228515625	1215.354736328125	1422.313842773438	891.878662109375	1010.990539550781	1419.64453125	429.4034729003906	942.4359741210938	1438.767333984375	584.7177124023438	932.3856811523438	1318.90380859375	20.94979095458984	862.51416015625	1400.100463867188	274.1627197265625	911.5020141601562	1456.055053710938	32.71196365356445	1056.895751953125	1381.920776367188	40.35769653320312	1036.408325195312	1447.817260742188	28.89602661132812	943.482177734375	1244.3583984375	13.18233299255371	876.6533813476562	1212.317138671875	456.36767578125	1220.53271484375	1189.265747070312	710.9948120117188	1247.422241210938	1146.3876953125	31.14511680603027	1177.8955078125	1195.958129882812	310.6378173828125	1226.16650390625	1356.829467773438	34.31311798095703	1252.366088867188	1321.278198242188	42.27945709228516	1190.390747070312	1245.463745117188	33.42710876464844	1271.6962890625	1117.1201171875	19.8216438293457	1104.81298828125	
419	4.18	1125.650512695312	946.4456176757812	1028.558837890625	1206.369018554688	948.6082763671875	911.9888305664062	1166.660400390625	1046.05712890625	993.3203735351562	1403.333740234375	1246.07421875	1120.31396484375	1149.21533203125	1170.375122070312	984.5671997070312	1198.751953125	1439.950561523438	1031.526489257812	1371.9208984375	1359.656616210938	1098.637939453125	1099.431762695312	1319.47119140625	1085.825927734375	1211.486572265625	1391.785034179688	929.3220825195312	1339.191162109375	1417.734741210938	898.3070678710938	1367.394653320312	1301.85546875	801.8023681640625	1391.687255859375	1088.702514648438	767.7244262695312	1293.665283203125	1076.709594726562	794.6889038085938	1448.047119140625	898.0689086914062	832.2638549804688	1426.503173828125	870.8072509765625	766.4398193359375	1414.737915039062	1001.73681640625	764.0413208007812	1481.249145507812	744.00732421875	867.7619018554688	1450.020874023438	791.4773559570312	784.4701538085938	1484.447998046875	821.393310546875	840.7501831054688	1187.175903320312	1407.4033203125	1206.50439453125	1139.833374023438	1343.581298828125	1266.194946289062	1126.549926757812	1055.0927734375	1312.940795898438	1093.31494140625	1041.182739257812	1255.42822265625	1236.9130859375	856.1361694335938	1312.874145507812	1153.713256835938	837.8903198242188	1333.26904296875	1126.3125	997.4800415039062	1321.477416992188	1240.661987304688	696.6066284179688	1318.708984375	1260.857666015625	761.6461791992188	1339.181274414062	1173.302490234375	750.7261962890625	1337.230102539062	1222.723022460938	1633.68017578125	1128.980102539062	1423.410034179688	1652.752685546875	1083.469970703125	1345.26171875	1654.144287109375	1188.257446289062	1314.677001953125	1636.197021484375	977.7596435546875	1388.20166015625	851.2456665039062	893.0278930664062	1146.112426757812	847.5446166992188	1208.391235351562	1266.54345703125	891.6473999023438	1215.284301757812	1422.348510742188	891.8993530273438	1010.948913574219	1419.44287109375	429.4673767089844	942.2364501953125	1438.59716796875	584.7216796875	932.23046875	1318.929443359375	20.93610763549805	862.4816284179688	1399.9951171875	274.1295776367188	911.4201049804688	1456.12744140625	32.65328216552734	1056.8310546875	1382.006225585938	40.45084762573242	1036.371704101562	1447.965209960938	28.6978645324707	943.449951171875	1244.412231445312	13.26369380950928	876.5728149414062	1212.28271484375	456.2831115722656	1220.478637695312	1189.525634765625	710.7760620117188	1247.600219726562	1146.393432617188	31.1847038269043	1177.8759765625	1195.914794921875	310.6452941894531	1226.11474609375	1356.793579101562	34.33662414550781	1252.395874023438	1321.260498046875	42.30009078979492	1190.401611328125	1245.413940429688	33.38765335083008	1271.624145507812	1117.139404296875	19.81680297851562	1104.770874023438	
420	4.19	1125.752563476562	946.6522827148438	1028.384887695312	1206.385375976562	948.8031005859375	911.9473266601562	1166.861328125	1046.179443359375	993.2337036132812	1403.428466796875	1246.046752929688	1120.545288085938	1149.370239257812	1170.482666015625	984.4227294921875	1199.042602539062	1440.028076171875	1031.553100585938	1372.101440429688	1359.671264648438	1098.913208007812	1099.696533203125	1319.669311523438	1085.638671875	1211.876831054688	1391.83837890625	929.25927734375	1339.688232421875	1417.767822265625	898.5592651367188	1368.405395507812	1301.969360351562	802.1417236328125	1393.51708984375	1088.77392578125	768.4969482421875	1295.2900390625	1076.524658203125	794.4772338867188	1450.106689453125	898.7840576171875	834.5503540039062	1429.401000976562	871.0452270507812	768.6534423828125	1417.005981445312	1001.884948730469	765.4630737304688	1483.750732421875	745.1444091796875	871.32373046875	1453.161254882812	791.9328002929688	787.40478515625	1486.843017578125	822.3822021484375	843.8507690429688	1187.233520507812	1407.54443359375	1206.43017578125	1139.665649414062	1343.877197265625	1266.047119140625	1125.537841796875	1055.296142578125	1312.560180664062	1092.381103515625	1041.544555664062	1255.074829101562	1235.73291015625	856.2537841796875	1312.43896484375	1152.572143554688	838.1416015625	1332.9765625	1125.280395507812	997.7189331054688	1321.122314453125	1239.306030273438	696.7305908203125	1318.166259765625	1259.370727539062	761.6868896484375	1338.70361328125	1171.994750976562	750.9550170898438	1336.848388671875	1222.794555664062	1633.580078125	1129.073120117188	1423.541137695312	1652.817504882812	1083.8154296875	1345.269775390625	1654.13818359375	1188.558349609375	1314.947021484375	1636.357055664062	977.9625244140625	1388.189208984375	851.3410034179688	892.9588012695312	1146.535522460938	847.4102172851562	1208.093872070312	1266.546020507812	891.5908203125	1215.2294921875	1422.361206054688	891.930908203125	1010.935424804688	1419.249633789062	429.5386657714844	942.0324096679688	1438.43994140625	584.7468872070312	932.086669921875	1318.956665039062	20.91605186462402	862.4423217773438	1399.893310546875	274.1071472167969	911.3323974609375	1456.180053710938	32.59969329833984	1056.772216796875	1382.09326171875	40.55309677124023	1036.32958984375	1448.09619140625	28.51644515991211	943.4158325195312	1244.473388671875	13.3477840423584	876.4921264648438	1212.237915039062	456.2047119140625	1220.421752929688	1189.774780273438	710.562744140625	1247.77490234375	1146.395629882812	31.2196159362793	1177.859741210938	1195.864013671875	310.6646728515625	1226.0634765625	1356.755981445312	34.35879516601562	1252.4248046875	1321.240112304688	42.32157135009766	1190.408447265625	1245.3701171875	33.35119247436523	1271.561157226562	1117.156372070312	19.81494522094727	1104.741577148438	
421	4.2	1125.838256835938	946.8471069335938	1028.211791992188	1206.410278320312	949.0050048828125	911.876220703125	1167.047607421875	1046.305419921875	993.1285400390625	1403.475708007812	1246.027465820312	1120.80908203125	1149.540771484375	1170.596069335938	984.2280883789062	1199.324340820312	1440.120239257812	1031.531005859375	1372.250854492188	1359.69091796875	1099.2041015625	1099.93359375	1319.877197265625	1085.393920898438	1212.283203125	1391.877685546875	929.1632080078125	1340.212890625	1417.804077148438	898.826171875	1369.465942382812	1302.111694335938	802.4808959960938	1395.396362304688	1088.900268554688	769.1888427734375	1296.978149414062	1076.38916015625	794.2111206054688	1452.180786132812	899.50634765625	836.622314453125	1432.316772460938	871.3443603515625	770.6513061523438	1419.301635742188	1002.094970703125	766.7494506835938	1486.203491210938	746.2630615234375	874.581298828125	1456.27685546875	792.4286499023438	790.0718383789062	1489.2216796875	823.3616333007812	846.6885986328125	1187.249877929688	1407.701782226562	1206.309936523438	1139.429809570312	1344.198120117188	1265.838134765625	1124.469482421875	1055.533447265625	1312.175659179688	1091.447265625	1041.896118164062	1254.677001953125	1234.566528320312	856.42236328125	1312.103149414062	1151.455200195312	838.4485473632812	1332.764770507812	1124.225830078125	998.0095825195312	1320.796508789062	1238.031494140625	696.8857421875	1317.783081054688	1257.89794921875	761.7792358398438	1338.325927734375	1170.690063476562	751.1162719726562	1336.458862304688	1222.846801757812	1633.515625	1129.122802734375	1423.65966796875	1652.897216796875	1084.129760742188	1345.273193359375	1654.143188476562	1188.7822265625	1315.215087890625	1636.51318359375	978.1353149414062	1388.179565429688	851.4511108398438	892.9048461914062	1146.939086914062	847.2844848632812	1207.797729492188	1266.471313476562	891.541015625	1215.18994140625	1422.353271484375	891.970458984375	1010.948608398438	1419.065063476562	429.6158752441406	941.8238525390625	1438.300537109375	584.7940063476562	931.9495239257812	1318.984497070312	20.88623237609863	862.398193359375	1399.790283203125	274.1059265136719	911.2279052734375	1456.219116210938	32.55343246459961	1056.71630859375	1382.179321289062	40.65982437133789	1036.2802734375	1448.213745117188	28.35705757141113	943.3773193359375	1244.541625976562	13.43805599212646	876.4041748046875	1212.187744140625	456.1527099609375	1220.373046875	1190.018310546875	710.3755493164062	1247.957397460938	1146.390625	31.24256324768066	1177.844482421875	1195.799072265625	310.6930236816406	1226.008178710938	1356.714599609375	34.38105010986328	1252.452758789062	1321.213745117188	42.34390258789062	1190.410034179688	1245.333984375	33.32539367675781	1271.514892578125	1117.16943359375	19.81136322021484	1104.724975585938	
